<mxfile host="app.diagrams.net" modified="2024-05-15T21:44:47.350Z" agent="Mozilla/5.0 (Windows NT 10.0; Win64; x64) AppleWebKit/537.36 (KHTML, like Gecko) Chrome/123.0.0.0 Safari/537.36 OPR/109.0.0.0" etag="LxDQsVYpymDFuapvDC5X" version="24.4.2" type="device">
  <diagram name="Page-1" id="RTotbi8C4EwSEV28XzKA">
    <mxGraphModel dx="1393" dy="758" grid="1" gridSize="10" guides="1" tooltips="1" connect="1" arrows="1" fold="1" page="1" pageScale="1" pageWidth="850" pageHeight="1100" math="0" shadow="0">
      <root>
        <mxCell id="0" />
        <mxCell id="1" parent="0" />
        <mxCell id="OS5yNtTstuqsKu3GFZPS-36" style="edgeStyle=orthogonalEdgeStyle;rounded=0;orthogonalLoop=1;jettySize=auto;html=1;exitX=0.5;exitY=1;exitDx=0;exitDy=0;entryX=1;entryY=0.5;entryDx=0;entryDy=0;" parent="1" source="OS5yNtTstuqsKu3GFZPS-1" target="OS5yNtTstuqsKu3GFZPS-33" edge="1">
          <mxGeometry relative="1" as="geometry" />
        </mxCell>
        <mxCell id="OS5yNtTstuqsKu3GFZPS-38" style="edgeStyle=orthogonalEdgeStyle;rounded=0;orthogonalLoop=1;jettySize=auto;html=1;exitX=0;exitY=0.5;exitDx=0;exitDy=0;entryX=1;entryY=0.5;entryDx=0;entryDy=0;" parent="1" source="OS5yNtTstuqsKu3GFZPS-14" target="OS5yNtTstuqsKu3GFZPS-3" edge="1">
          <mxGeometry relative="1" as="geometry" />
        </mxCell>
        <mxCell id="OS5yNtTstuqsKu3GFZPS-1" value="Keyboard" style="html=1;dashed=0;whiteSpace=wrap;" parent="1" vertex="1">
          <mxGeometry x="680" y="320" width="100" height="50" as="geometry" />
        </mxCell>
        <mxCell id="OS5yNtTstuqsKu3GFZPS-40" style="edgeStyle=orthogonalEdgeStyle;rounded=0;orthogonalLoop=1;jettySize=auto;html=1;exitX=0.5;exitY=1;exitDx=0;exitDy=0;entryX=0;entryY=0.5;entryDx=0;entryDy=0;" parent="1" source="OS5yNtTstuqsKu3GFZPS-3" target="OS5yNtTstuqsKu3GFZPS-33" edge="1">
          <mxGeometry relative="1" as="geometry" />
        </mxCell>
        <mxCell id="OS5yNtTstuqsKu3GFZPS-3" value="Text to Speech" style="shape=ellipse;html=1;dashed=0;whiteSpace=wrap;perimeter=ellipsePerimeter;" parent="1" vertex="1">
          <mxGeometry x="365" y="285" width="120" height="120" as="geometry" />
        </mxCell>
        <mxCell id="fbe45DdXkMdwNEJWeoM2-1" style="edgeStyle=orthogonalEdgeStyle;rounded=0;orthogonalLoop=1;jettySize=auto;html=1;exitX=0.5;exitY=1;exitDx=0;exitDy=0;entryX=0.5;entryY=0;entryDx=0;entryDy=0;" edge="1" parent="1" source="OS5yNtTstuqsKu3GFZPS-33" target="fbe45DdXkMdwNEJWeoM2-2">
          <mxGeometry relative="1" as="geometry">
            <mxPoint x="575" y="590" as="targetPoint" />
          </mxGeometry>
        </mxCell>
        <mxCell id="OS5yNtTstuqsKu3GFZPS-33" value="&lt;span style=&quot;text-wrap: nowrap;&quot;&gt;Creates Output File&lt;/span&gt;" style="shape=dataStorage;whiteSpace=wrap;html=1;fixedSize=1;" parent="1" vertex="1">
          <mxGeometry x="490" y="430" width="170" height="60" as="geometry" />
        </mxCell>
        <mxCell id="OS5yNtTstuqsKu3GFZPS-39" value="" style="edgeStyle=orthogonalEdgeStyle;rounded=0;orthogonalLoop=1;jettySize=auto;html=1;exitX=0;exitY=0.5;exitDx=0;exitDy=0;entryX=1;entryY=0.5;entryDx=0;entryDy=0;" parent="1" source="OS5yNtTstuqsKu3GFZPS-1" target="OS5yNtTstuqsKu3GFZPS-14" edge="1">
          <mxGeometry relative="1" as="geometry">
            <mxPoint x="680" y="345" as="sourcePoint" />
            <mxPoint x="485" y="345" as="targetPoint" />
          </mxGeometry>
        </mxCell>
        <mxCell id="OS5yNtTstuqsKu3GFZPS-14" value="Provides Output Filename" style="text;html=1;align=center;verticalAlign=middle;resizable=0;points=[];autosize=1;strokeColor=none;fillColor=none;" parent="1" vertex="1">
          <mxGeometry x="500" y="330" width="160" height="30" as="geometry" />
        </mxCell>
        <mxCell id="fbe45DdXkMdwNEJWeoM2-4" style="edgeStyle=orthogonalEdgeStyle;rounded=0;orthogonalLoop=1;jettySize=auto;html=1;exitX=0;exitY=0.5;exitDx=0;exitDy=0;entryX=1;entryY=0.5;entryDx=0;entryDy=0;" edge="1" parent="1" source="fbe45DdXkMdwNEJWeoM2-2" target="fbe45DdXkMdwNEJWeoM2-3">
          <mxGeometry relative="1" as="geometry" />
        </mxCell>
        <mxCell id="fbe45DdXkMdwNEJWeoM2-7" style="edgeStyle=orthogonalEdgeStyle;rounded=0;orthogonalLoop=1;jettySize=auto;html=1;exitX=1;exitY=0.5;exitDx=0;exitDy=0;entryX=0;entryY=0.5;entryDx=0;entryDy=0;" edge="1" parent="1" source="fbe45DdXkMdwNEJWeoM2-2" target="fbe45DdXkMdwNEJWeoM2-6">
          <mxGeometry relative="1" as="geometry" />
        </mxCell>
        <mxCell id="fbe45DdXkMdwNEJWeoM2-2" value="Use Program&#xa;Again?" style="rhombus;" vertex="1" parent="1">
          <mxGeometry x="525" y="560" width="100" height="100" as="geometry" />
        </mxCell>
        <mxCell id="fbe45DdXkMdwNEJWeoM2-5" style="edgeStyle=orthogonalEdgeStyle;rounded=0;orthogonalLoop=1;jettySize=auto;html=1;exitX=0;exitY=0.5;exitDx=0;exitDy=0;entryX=0;entryY=0.5;entryDx=0;entryDy=0;" edge="1" parent="1" source="fbe45DdXkMdwNEJWeoM2-3" target="OS5yNtTstuqsKu3GFZPS-3">
          <mxGeometry relative="1" as="geometry" />
        </mxCell>
        <mxCell id="fbe45DdXkMdwNEJWeoM2-3" value="Yes" style="shape=hexagon;perimeter=hexagonPerimeter2;whiteSpace=wrap;html=1;size=0.25" vertex="1" parent="1">
          <mxGeometry x="375" y="585" width="100" height="50" as="geometry" />
        </mxCell>
        <mxCell id="fbe45DdXkMdwNEJWeoM2-15" style="edgeStyle=orthogonalEdgeStyle;rounded=0;orthogonalLoop=1;jettySize=auto;html=1;exitX=1;exitY=0.5;exitDx=0;exitDy=0;entryX=0.5;entryY=1;entryDx=0;entryDy=0;" edge="1" parent="1" source="fbe45DdXkMdwNEJWeoM2-6" target="fbe45DdXkMdwNEJWeoM2-14">
          <mxGeometry relative="1" as="geometry" />
        </mxCell>
        <mxCell id="fbe45DdXkMdwNEJWeoM2-6" value="No" style="shape=hexagon;perimeter=hexagonPerimeter2;whiteSpace=wrap;html=1;size=0.25" vertex="1" parent="1">
          <mxGeometry x="680" y="585" width="100" height="50" as="geometry" />
        </mxCell>
        <mxCell id="fbe45DdXkMdwNEJWeoM2-14" value="End" style="shape=ellipse;html=1;dashed=0;whiteSpace=wrap;aspect=fixed;strokeWidth=5;perimeter=ellipsePerimeter;" vertex="1" parent="1">
          <mxGeometry x="770" y="490" width="60" height="60" as="geometry" />
        </mxCell>
      </root>
    </mxGraphModel>
  </diagram>
</mxfile>
